<mxfile host="app.diagrams.net" modified="2023-09-07T19:15:01.387Z" agent="Mozilla/5.0 (X11; Ubuntu; Linux x86_64; rv:109.0) Gecko/20100101 Firefox/116.0" version="21.7.2" etag="7zwnRd9lAfZWI9Dru22S" type="github">
  <diagram name="Page-1" id="d4adGncEkQ9KNqDtc8V2">
    <mxGraphModel>
      <root>
        <mxCell id="0" />
        <mxCell id="1" parent="0" />
      </root>
    </mxGraphModel>
  </diagram>
</mxfile>
